<mxfile host="app.diagrams.net" modified="2023-12-06T13:21:31.997Z" agent="Mozilla/5.0 (Windows NT 10.0; Win64; x64) AppleWebKit/537.36 (KHTML, like Gecko) Chrome/118.0.5993.2470 YaBrowser/23.11.0.2470 Yowser/2.5 Safari/537.36" etag="Z0uF85O_d7og2bhLpudM" version="22.1.5" type="device">
  <diagram name="Страница — 1" id="0vxwM_c2IZGrAj-ZxKOK">
    <mxGraphModel dx="2420" dy="1888" grid="1" gridSize="10" guides="1" tooltips="1" connect="1" arrows="1" fold="1" page="1" pageScale="1" pageWidth="827" pageHeight="1169" math="0" shadow="0">
      <root>
        <mxCell id="0" />
        <mxCell id="1" parent="0" />
        <mxCell id="0oNPrVKKpPZaizMl-p-G-101" value="" style="rounded=0;whiteSpace=wrap;html=1;strokeColor=#969696;" vertex="1" parent="1">
          <mxGeometry x="82.25" y="-200" width="457.75" height="269.5" as="geometry" />
        </mxCell>
        <mxCell id="0oNPrVKKpPZaizMl-p-G-100" value="" style="rounded=0;whiteSpace=wrap;html=1;strokeColor=#969696;" vertex="1" parent="1">
          <mxGeometry x="17.5" y="80" width="452.5" height="221.5" as="geometry" />
        </mxCell>
        <mxCell id="0oNPrVKKpPZaizMl-p-G-99" value="" style="rounded=0;whiteSpace=wrap;html=1;strokeColor=#969696;" vertex="1" parent="1">
          <mxGeometry x="98" y="550.5" width="422.5" height="235" as="geometry" />
        </mxCell>
        <mxCell id="0oNPrVKKpPZaizMl-p-G-98" value="" style="rounded=0;whiteSpace=wrap;html=1;strokeColor=#969696;" vertex="1" parent="1">
          <mxGeometry x="67.5" y="310" width="422.5" height="235" as="geometry" />
        </mxCell>
        <mxCell id="0oNPrVKKpPZaizMl-p-G-15" value="&lt;font style=&quot;font-size: 14px;&quot;&gt;DMZ&lt;br&gt;&lt;br&gt;&lt;br&gt;&lt;br&gt;&lt;br&gt;&lt;br&gt;&lt;br&gt;&lt;br&gt;&lt;br&gt;&lt;br&gt;&lt;br&gt;&lt;/font&gt;" style="rounded=1;whiteSpace=wrap;html=1;" vertex="1" parent="1">
          <mxGeometry x="774.5" y="30" width="180" height="210" as="geometry" />
        </mxCell>
        <mxCell id="0oNPrVKKpPZaizMl-p-G-1" value="Switch3" style="shape=parallelogram;perimeter=parallelogramPerimeter;whiteSpace=wrap;html=1;fixedSize=1;fillColor=#D4D4D4;" vertex="1" parent="1">
          <mxGeometry x="370" y="228" width="80" height="40" as="geometry" />
        </mxCell>
        <mxCell id="0oNPrVKKpPZaizMl-p-G-2" value="Switch2" style="shape=parallelogram;perimeter=parallelogramPerimeter;whiteSpace=wrap;html=1;fixedSize=1;fillColor=#D4D4D4;" vertex="1" parent="1">
          <mxGeometry x="380" y="430" width="80" height="40" as="geometry" />
        </mxCell>
        <mxCell id="0oNPrVKKpPZaizMl-p-G-3" value="Switch1" style="shape=parallelogram;perimeter=parallelogramPerimeter;whiteSpace=wrap;html=1;fixedSize=1;fillColor=#D4D4D4;" vertex="1" parent="1">
          <mxGeometry x="411" y="607" width="80" height="40" as="geometry" />
        </mxCell>
        <mxCell id="0oNPrVKKpPZaizMl-p-G-4" value="Switch0" style="shape=parallelogram;perimeter=parallelogramPerimeter;whiteSpace=wrap;html=1;fixedSize=1;fillColor=#D4D4D4;" vertex="1" parent="1">
          <mxGeometry x="580" y="320" width="80" height="40" as="geometry" />
        </mxCell>
        <mxCell id="0oNPrVKKpPZaizMl-p-G-5" value="&lt;font style=&quot;font-size: 14px;&quot;&gt;4 ЭТАЖ&lt;/font&gt;" style="text;html=1;align=center;verticalAlign=middle;resizable=0;points=[];autosize=1;strokeColor=none;fillColor=none;" vertex="1" parent="1">
          <mxGeometry x="-12.5" y="-93" width="80" height="30" as="geometry" />
        </mxCell>
        <mxCell id="0oNPrVKKpPZaizMl-p-G-6" value="&lt;font style=&quot;font-size: 14px;&quot;&gt;3 ЭТАЖ&lt;/font&gt;" style="text;html=1;align=center;verticalAlign=middle;resizable=0;points=[];autosize=1;strokeColor=none;fillColor=none;" vertex="1" parent="1">
          <mxGeometry x="-75" y="212" width="80" height="30" as="geometry" />
        </mxCell>
        <mxCell id="0oNPrVKKpPZaizMl-p-G-7" value="&lt;font style=&quot;font-size: 14px;&quot;&gt;2 ЭТАЖ&lt;/font&gt;" style="text;html=1;align=center;verticalAlign=middle;resizable=0;points=[];autosize=1;strokeColor=none;fillColor=none;" vertex="1" parent="1">
          <mxGeometry x="-30" y="426" width="80" height="30" as="geometry" />
        </mxCell>
        <mxCell id="0oNPrVKKpPZaizMl-p-G-8" value="&lt;font style=&quot;font-size: 14px;&quot;&gt;1 ЭТАЖ&lt;/font&gt;" style="text;html=1;align=center;verticalAlign=middle;resizable=0;points=[];autosize=1;strokeColor=none;fillColor=none;" vertex="1" parent="1">
          <mxGeometry x="-12.5" y="653" width="80" height="30" as="geometry" />
        </mxCell>
        <mxCell id="0oNPrVKKpPZaizMl-p-G-9" value="" style="rounded=0;whiteSpace=wrap;html=1;fillColor=#6E6E6E;" vertex="1" parent="1">
          <mxGeometry x="844.5" y="100" width="40" height="80" as="geometry" />
        </mxCell>
        <mxCell id="0oNPrVKKpPZaizMl-p-G-11" value="ИНТЕРНЕТ" style="ellipse;shape=cloud;whiteSpace=wrap;html=1;fillColor=#82D7E0;" vertex="1" parent="1">
          <mxGeometry x="804.5" y="500" width="120" height="80" as="geometry" />
        </mxCell>
        <mxCell id="0oNPrVKKpPZaizMl-p-G-12" value="ROUTER" style="ellipse;whiteSpace=wrap;html=1;fillColor=#9CACFF;" vertex="1" parent="1">
          <mxGeometry x="827" y="315" width="75" height="50" as="geometry" />
        </mxCell>
        <mxCell id="0oNPrVKKpPZaizMl-p-G-13" value="" style="endArrow=none;html=1;rounded=0;entryX=0.5;entryY=1;entryDx=0;entryDy=0;exitX=0.5;exitY=0;exitDx=0;exitDy=0;" edge="1" parent="1" source="0oNPrVKKpPZaizMl-p-G-12" target="0oNPrVKKpPZaizMl-p-G-9">
          <mxGeometry width="50" height="50" relative="1" as="geometry">
            <mxPoint x="820" y="310" as="sourcePoint" />
            <mxPoint x="870" y="260" as="targetPoint" />
          </mxGeometry>
        </mxCell>
        <mxCell id="0oNPrVKKpPZaizMl-p-G-14" value="" style="endArrow=none;html=1;rounded=0;exitX=0.5;exitY=0.063;exitDx=0;exitDy=0;exitPerimeter=0;entryX=0.5;entryY=1;entryDx=0;entryDy=0;" edge="1" parent="1" source="0oNPrVKKpPZaizMl-p-G-11" target="0oNPrVKKpPZaizMl-p-G-12">
          <mxGeometry width="50" height="50" relative="1" as="geometry">
            <mxPoint x="820" y="410" as="sourcePoint" />
            <mxPoint x="870" y="360" as="targetPoint" />
          </mxGeometry>
        </mxCell>
        <mxCell id="0oNPrVKKpPZaizMl-p-G-16" value="" style="endArrow=none;html=1;rounded=0;entryX=0;entryY=0.5;entryDx=0;entryDy=0;exitX=1;exitY=0.5;exitDx=0;exitDy=0;" edge="1" parent="1" source="0oNPrVKKpPZaizMl-p-G-4" target="0oNPrVKKpPZaizMl-p-G-12">
          <mxGeometry width="50" height="50" relative="1" as="geometry">
            <mxPoint x="680" y="450" as="sourcePoint" />
            <mxPoint x="730" y="400" as="targetPoint" />
          </mxGeometry>
        </mxCell>
        <mxCell id="0oNPrVKKpPZaizMl-p-G-17" value="Switch4" style="shape=parallelogram;perimeter=parallelogramPerimeter;whiteSpace=wrap;html=1;fixedSize=1;fillColor=#D4D4D4;" vertex="1" parent="1">
          <mxGeometry x="440" y="-10" width="80" height="40" as="geometry" />
        </mxCell>
        <mxCell id="0oNPrVKKpPZaizMl-p-G-18" value="" style="endArrow=none;html=1;rounded=0;exitX=1;exitY=0.5;exitDx=0;exitDy=0;" edge="1" parent="1" source="0oNPrVKKpPZaizMl-p-G-17">
          <mxGeometry width="50" height="50" relative="1" as="geometry">
            <mxPoint x="470" y="150" as="sourcePoint" />
            <mxPoint x="540" y="130" as="targetPoint" />
          </mxGeometry>
        </mxCell>
        <mxCell id="0oNPrVKKpPZaizMl-p-G-19" value="" style="endArrow=none;html=1;rounded=0;" edge="1" parent="1">
          <mxGeometry width="50" height="50" relative="1" as="geometry">
            <mxPoint x="540" y="330" as="sourcePoint" />
            <mxPoint x="540" y="130" as="targetPoint" />
          </mxGeometry>
        </mxCell>
        <mxCell id="0oNPrVKKpPZaizMl-p-G-20" value="" style="endArrow=none;html=1;rounded=0;exitX=0;exitY=0;exitDx=0;exitDy=0;" edge="1" parent="1" source="0oNPrVKKpPZaizMl-p-G-4">
          <mxGeometry width="50" height="50" relative="1" as="geometry">
            <mxPoint x="460" y="370" as="sourcePoint" />
            <mxPoint x="540" y="328" as="targetPoint" />
          </mxGeometry>
        </mxCell>
        <mxCell id="0oNPrVKKpPZaizMl-p-G-21" value="" style="endArrow=none;html=1;rounded=0;exitX=1;exitY=0.5;exitDx=0;exitDy=0;" edge="1" parent="1" source="0oNPrVKKpPZaizMl-p-G-1">
          <mxGeometry width="50" height="50" relative="1" as="geometry">
            <mxPoint x="450" y="280" as="sourcePoint" />
            <mxPoint x="510" y="280" as="targetPoint" />
          </mxGeometry>
        </mxCell>
        <mxCell id="0oNPrVKKpPZaizMl-p-G-22" value="" style="endArrow=none;html=1;rounded=0;" edge="1" parent="1">
          <mxGeometry width="50" height="50" relative="1" as="geometry">
            <mxPoint x="510" y="340" as="sourcePoint" />
            <mxPoint x="510" y="280" as="targetPoint" />
          </mxGeometry>
        </mxCell>
        <mxCell id="0oNPrVKKpPZaizMl-p-G-23" value="" style="endArrow=none;html=1;rounded=0;exitX=0;exitY=0.5;exitDx=0;exitDy=0;" edge="1" parent="1" source="0oNPrVKKpPZaizMl-p-G-4">
          <mxGeometry width="50" height="50" relative="1" as="geometry">
            <mxPoint x="576" y="339.5" as="sourcePoint" />
            <mxPoint x="510" y="340" as="targetPoint" />
          </mxGeometry>
        </mxCell>
        <mxCell id="0oNPrVKKpPZaizMl-p-G-24" value="" style="endArrow=none;html=1;rounded=0;entryX=0;entryY=0.75;entryDx=0;entryDy=0;" edge="1" parent="1" target="0oNPrVKKpPZaizMl-p-G-4">
          <mxGeometry width="50" height="50" relative="1" as="geometry">
            <mxPoint x="520" y="349" as="sourcePoint" />
            <mxPoint x="580" y="348" as="targetPoint" />
          </mxGeometry>
        </mxCell>
        <mxCell id="0oNPrVKKpPZaizMl-p-G-25" value="" style="endArrow=none;html=1;rounded=0;" edge="1" parent="1">
          <mxGeometry width="50" height="50" relative="1" as="geometry">
            <mxPoint x="520" y="430" as="sourcePoint" />
            <mxPoint x="520" y="348" as="targetPoint" />
          </mxGeometry>
        </mxCell>
        <mxCell id="0oNPrVKKpPZaizMl-p-G-26" value="" style="endArrow=none;html=1;rounded=0;entryX=1;entryY=0.5;entryDx=0;entryDy=0;" edge="1" parent="1" target="0oNPrVKKpPZaizMl-p-G-2">
          <mxGeometry width="50" height="50" relative="1" as="geometry">
            <mxPoint x="520" y="430" as="sourcePoint" />
            <mxPoint x="450" y="430" as="targetPoint" />
          </mxGeometry>
        </mxCell>
        <mxCell id="0oNPrVKKpPZaizMl-p-G-27" value="" style="endArrow=none;html=1;rounded=0;exitX=1;exitY=0.5;exitDx=0;exitDy=0;" edge="1" parent="1" source="0oNPrVKKpPZaizMl-p-G-3">
          <mxGeometry width="50" height="50" relative="1" as="geometry">
            <mxPoint x="450" y="559.58" as="sourcePoint" />
            <mxPoint x="590" y="560" as="targetPoint" />
          </mxGeometry>
        </mxCell>
        <mxCell id="0oNPrVKKpPZaizMl-p-G-28" value="" style="endArrow=none;html=1;rounded=0;entryX=0.15;entryY=1.025;entryDx=0;entryDy=0;entryPerimeter=0;" edge="1" parent="1" target="0oNPrVKKpPZaizMl-p-G-4">
          <mxGeometry width="50" height="50" relative="1" as="geometry">
            <mxPoint x="590" y="560" as="sourcePoint" />
            <mxPoint x="660" y="340" as="targetPoint" />
          </mxGeometry>
        </mxCell>
        <mxCell id="0oNPrVKKpPZaizMl-p-G-29" value="" style="rounded=0;whiteSpace=wrap;html=1;strokeColor=#595959;fillColor=#6E6E6E;" vertex="1" parent="1">
          <mxGeometry x="357" y="-188" width="40" height="80" as="geometry" />
        </mxCell>
        <mxCell id="0oNPrVKKpPZaizMl-p-G-30" value="" style="rounded=0;whiteSpace=wrap;html=1;fillColor=#6E6E6E;" vertex="1" parent="1">
          <mxGeometry x="397" y="100" width="40" height="80" as="geometry" />
        </mxCell>
        <mxCell id="0oNPrVKKpPZaizMl-p-G-31" value="" style="rounded=0;whiteSpace=wrap;html=1;fillColor=#6E6E6E;" vertex="1" parent="1">
          <mxGeometry x="447" y="702" width="40" height="80" as="geometry" />
        </mxCell>
        <mxCell id="0oNPrVKKpPZaizMl-p-G-32" value="" style="endArrow=none;html=1;rounded=0;exitX=1;exitY=0.75;exitDx=0;exitDy=0;entryX=0.404;entryY=-0.068;entryDx=0;entryDy=0;entryPerimeter=0;" edge="1" parent="1" source="0oNPrVKKpPZaizMl-p-G-29" target="0oNPrVKKpPZaizMl-p-G-17">
          <mxGeometry width="50" height="50" relative="1" as="geometry">
            <mxPoint x="380" y="-120" as="sourcePoint" />
            <mxPoint x="430" y="-170" as="targetPoint" />
          </mxGeometry>
        </mxCell>
        <mxCell id="0oNPrVKKpPZaizMl-p-G-33" value="&lt;font style=&quot;font-size: 14px;&quot;&gt;Внутренний сервер&lt;/font&gt;" style="text;html=1;align=center;verticalAlign=middle;resizable=0;points=[];autosize=1;strokeColor=none;fillColor=none;" vertex="1" parent="1">
          <mxGeometry x="405" y="-150" width="150" height="30" as="geometry" />
        </mxCell>
        <mxCell id="0oNPrVKKpPZaizMl-p-G-34" value="&lt;font style=&quot;font-size: 14px;&quot;&gt;Группа ПК&lt;/font&gt;" style="ellipse;whiteSpace=wrap;html=1;fillColor=#E6D0DE;" vertex="1" parent="1">
          <mxGeometry x="210" y="-131" width="120" height="50" as="geometry" />
        </mxCell>
        <mxCell id="0oNPrVKKpPZaizMl-p-G-35" value="" style="endArrow=none;html=1;rounded=0;exitX=0.5;exitY=0;exitDx=0;exitDy=0;entryX=0.399;entryY=0.969;entryDx=0;entryDy=0;entryPerimeter=0;" edge="1" parent="1" source="0oNPrVKKpPZaizMl-p-G-31" target="0oNPrVKKpPZaizMl-p-G-3">
          <mxGeometry width="50" height="50" relative="1" as="geometry">
            <mxPoint x="367" y="697" as="sourcePoint" />
            <mxPoint x="417" y="647" as="targetPoint" />
          </mxGeometry>
        </mxCell>
        <mxCell id="0oNPrVKKpPZaizMl-p-G-36" value="&lt;font style=&quot;font-size: 14px;&quot;&gt;Sw24&lt;/font&gt;" style="text;html=1;align=center;verticalAlign=middle;resizable=0;points=[];autosize=1;strokeColor=none;fillColor=none;" vertex="1" parent="1">
          <mxGeometry x="605" y="293" width="60" height="30" as="geometry" />
        </mxCell>
        <mxCell id="0oNPrVKKpPZaizMl-p-G-38" value="&lt;font style=&quot;font-size: 14px;&quot;&gt;Sw24&lt;/font&gt;" style="text;html=1;align=center;verticalAlign=middle;resizable=0;points=[];autosize=1;strokeColor=none;fillColor=none;" vertex="1" parent="1">
          <mxGeometry x="490" y="-42" width="60" height="30" as="geometry" />
        </mxCell>
        <mxCell id="0oNPrVKKpPZaizMl-p-G-39" value="&lt;span style=&quot;font-size: 14px;&quot;&gt;Sw24&lt;/span&gt;" style="text;html=1;align=center;verticalAlign=middle;resizable=0;points=[];autosize=1;strokeColor=none;fillColor=none;" vertex="1" parent="1">
          <mxGeometry x="440" y="208" width="60" height="30" as="geometry" />
        </mxCell>
        <mxCell id="0oNPrVKKpPZaizMl-p-G-40" value="&lt;font style=&quot;font-size: 14px;&quot;&gt;Sw24&lt;/font&gt;" style="text;html=1;align=center;verticalAlign=middle;resizable=0;points=[];autosize=1;strokeColor=none;fillColor=none;" vertex="1" parent="1">
          <mxGeometry x="430" y="388" width="60" height="30" as="geometry" />
        </mxCell>
        <mxCell id="0oNPrVKKpPZaizMl-p-G-41" value="&lt;font style=&quot;font-size: 14px;&quot;&gt;Sw24&lt;/font&gt;" style="text;html=1;align=center;verticalAlign=middle;resizable=0;points=[];autosize=1;strokeColor=none;fillColor=none;" vertex="1" parent="1">
          <mxGeometry x="460" y="580" width="60" height="30" as="geometry" />
        </mxCell>
        <mxCell id="0oNPrVKKpPZaizMl-p-G-43" value="" style="endArrow=none;html=1;rounded=0;entryX=0;entryY=0.75;entryDx=0;entryDy=0;exitX=1;exitY=0.75;exitDx=0;exitDy=0;" edge="1" parent="1" source="0oNPrVKKpPZaizMl-p-G-45" target="0oNPrVKKpPZaizMl-p-G-17">
          <mxGeometry width="50" height="50" relative="1" as="geometry">
            <mxPoint x="335" y="30" as="sourcePoint" />
            <mxPoint x="385" y="-20" as="targetPoint" />
          </mxGeometry>
        </mxCell>
        <mxCell id="0oNPrVKKpPZaizMl-p-G-44" value="" style="endArrow=none;html=1;rounded=0;exitX=1;exitY=0.5;exitDx=0;exitDy=0;entryX=0;entryY=0.25;entryDx=0;entryDy=0;" edge="1" parent="1" source="0oNPrVKKpPZaizMl-p-G-34" target="0oNPrVKKpPZaizMl-p-G-17">
          <mxGeometry width="50" height="50" relative="1" as="geometry">
            <mxPoint x="450" y="70" as="sourcePoint" />
            <mxPoint x="500" y="20" as="targetPoint" />
          </mxGeometry>
        </mxCell>
        <mxCell id="0oNPrVKKpPZaizMl-p-G-45" value="Switch12" style="shape=parallelogram;perimeter=parallelogramPerimeter;whiteSpace=wrap;html=1;fixedSize=1;fillColor=#D4D4D4;" vertex="1" parent="1">
          <mxGeometry x="262" y="-41" width="80" height="40" as="geometry" />
        </mxCell>
        <mxCell id="0oNPrVKKpPZaizMl-p-G-46" value="" style="endArrow=none;html=1;rounded=0;entryX=0.25;entryY=1;entryDx=0;entryDy=0;exitX=0.192;exitY=-0.129;exitDx=0;exitDy=0;exitPerimeter=0;" edge="1" parent="1" source="0oNPrVKKpPZaizMl-p-G-54" target="0oNPrVKKpPZaizMl-p-G-17">
          <mxGeometry width="50" height="50" relative="1" as="geometry">
            <mxPoint x="329" y="95" as="sourcePoint" />
            <mxPoint x="440" y="84" as="targetPoint" />
          </mxGeometry>
        </mxCell>
        <mxCell id="0oNPrVKKpPZaizMl-p-G-47" value="Switch11" style="shape=parallelogram;perimeter=parallelogramPerimeter;whiteSpace=wrap;html=1;fixedSize=1;fillColor=#D4D4D4;" vertex="1" parent="1">
          <mxGeometry x="256" y="24" width="80" height="40" as="geometry" />
        </mxCell>
        <mxCell id="0oNPrVKKpPZaizMl-p-G-49" value="&lt;font style=&quot;font-size: 14px;&quot;&gt;Группа ПК&lt;/font&gt;" style="ellipse;whiteSpace=wrap;html=1;fillColor=#E6D0DE;" vertex="1" parent="1">
          <mxGeometry x="105" y="-73" width="120" height="52" as="geometry" />
        </mxCell>
        <mxCell id="0oNPrVKKpPZaizMl-p-G-50" value="" style="endArrow=none;html=1;rounded=0;exitX=1;exitY=0.5;exitDx=0;exitDy=0;entryX=0;entryY=0.25;entryDx=0;entryDy=0;" edge="1" parent="1" source="0oNPrVKKpPZaizMl-p-G-49" target="0oNPrVKKpPZaizMl-p-G-45">
          <mxGeometry width="50" height="50" relative="1" as="geometry">
            <mxPoint x="335" y="91" as="sourcePoint" />
            <mxPoint x="338" y="24" as="targetPoint" />
          </mxGeometry>
        </mxCell>
        <mxCell id="0oNPrVKKpPZaizMl-p-G-52" value="&lt;font style=&quot;font-size: 14px;&quot;&gt;Группа ПК&lt;/font&gt;" style="ellipse;whiteSpace=wrap;html=1;fillColor=#E6D0DE;" vertex="1" parent="1">
          <mxGeometry x="90" y="11" width="120" height="48" as="geometry" />
        </mxCell>
        <mxCell id="0oNPrVKKpPZaizMl-p-G-53" value="" style="endArrow=none;html=1;rounded=0;exitX=1;exitY=0.5;exitDx=0;exitDy=0;entryX=0;entryY=0.5;entryDx=0;entryDy=0;" edge="1" parent="1" source="0oNPrVKKpPZaizMl-p-G-52" target="0oNPrVKKpPZaizMl-p-G-47">
          <mxGeometry width="50" height="50" relative="1" as="geometry">
            <mxPoint x="320" y="175" as="sourcePoint" />
            <mxPoint x="323" y="108" as="targetPoint" />
          </mxGeometry>
        </mxCell>
        <mxCell id="0oNPrVKKpPZaizMl-p-G-54" value="&lt;font style=&quot;font-size: 14px;&quot;&gt;Sw48&lt;/font&gt;" style="text;html=1;align=center;verticalAlign=middle;resizable=0;points=[];autosize=1;strokeColor=none;fillColor=none;" vertex="1" parent="1">
          <mxGeometry x="312" y="47" width="60" height="30" as="geometry" />
        </mxCell>
        <mxCell id="0oNPrVKKpPZaizMl-p-G-55" value="&lt;font style=&quot;font-size: 14px;&quot;&gt;Sw48&lt;/font&gt;" style="text;html=1;align=center;verticalAlign=middle;resizable=0;points=[];autosize=1;strokeColor=none;fillColor=none;" vertex="1" parent="1">
          <mxGeometry x="332" y="-63" width="60" height="30" as="geometry" />
        </mxCell>
        <mxCell id="0oNPrVKKpPZaizMl-p-G-56" value="&lt;font style=&quot;font-size: 14px;&quot;&gt;Группа ПК&lt;/font&gt;" style="ellipse;whiteSpace=wrap;html=1;fillColor=#E6D0DE;" vertex="1" parent="1">
          <mxGeometry x="209" y="555" width="120" height="50" as="geometry" />
        </mxCell>
        <mxCell id="0oNPrVKKpPZaizMl-p-G-57" value="Switch6" style="shape=parallelogram;perimeter=parallelogramPerimeter;whiteSpace=wrap;html=1;fixedSize=1;fillColor=#D4D4D4;" vertex="1" parent="1">
          <mxGeometry x="276" y="627" width="80" height="40" as="geometry" />
        </mxCell>
        <mxCell id="0oNPrVKKpPZaizMl-p-G-58" value="Switch5" style="shape=parallelogram;perimeter=parallelogramPerimeter;whiteSpace=wrap;html=1;fixedSize=1;fillColor=#D4D4D4;" vertex="1" parent="1">
          <mxGeometry x="284" y="715" width="80" height="40" as="geometry" />
        </mxCell>
        <mxCell id="0oNPrVKKpPZaizMl-p-G-59" value="&lt;font style=&quot;font-size: 14px;&quot;&gt;Группа ПК&lt;/font&gt;" style="ellipse;whiteSpace=wrap;html=1;fillColor=#E6D0DE;" vertex="1" parent="1">
          <mxGeometry x="119" y="642" width="120" height="52" as="geometry" />
        </mxCell>
        <mxCell id="0oNPrVKKpPZaizMl-p-G-60" value="" style="endArrow=none;html=1;rounded=0;exitX=1;exitY=0.5;exitDx=0;exitDy=0;entryX=0;entryY=0.25;entryDx=0;entryDy=0;" edge="1" parent="1" source="0oNPrVKKpPZaizMl-p-G-59" target="0oNPrVKKpPZaizMl-p-G-57">
          <mxGeometry width="50" height="50" relative="1" as="geometry">
            <mxPoint x="349" y="759" as="sourcePoint" />
            <mxPoint x="352" y="692" as="targetPoint" />
          </mxGeometry>
        </mxCell>
        <mxCell id="0oNPrVKKpPZaizMl-p-G-61" value="&lt;font style=&quot;font-size: 14px;&quot;&gt;Группа ПК&lt;/font&gt;" style="ellipse;whiteSpace=wrap;html=1;fillColor=#E6D0DE;" vertex="1" parent="1">
          <mxGeometry x="124" y="727" width="120" height="48" as="geometry" />
        </mxCell>
        <mxCell id="0oNPrVKKpPZaizMl-p-G-62" value="" style="endArrow=none;html=1;rounded=0;exitX=1;exitY=0.5;exitDx=0;exitDy=0;entryX=0;entryY=0.5;entryDx=0;entryDy=0;" edge="1" parent="1" source="0oNPrVKKpPZaizMl-p-G-61" target="0oNPrVKKpPZaizMl-p-G-58">
          <mxGeometry width="50" height="50" relative="1" as="geometry">
            <mxPoint x="334" y="843" as="sourcePoint" />
            <mxPoint x="337" y="776" as="targetPoint" />
          </mxGeometry>
        </mxCell>
        <mxCell id="0oNPrVKKpPZaizMl-p-G-63" value="&lt;font style=&quot;font-size: 14px;&quot;&gt;Sw48&lt;/font&gt;" style="text;html=1;align=center;verticalAlign=middle;resizable=0;points=[];autosize=1;strokeColor=none;fillColor=none;" vertex="1" parent="1">
          <mxGeometry x="296" y="752" width="60" height="30" as="geometry" />
        </mxCell>
        <mxCell id="0oNPrVKKpPZaizMl-p-G-64" value="&lt;font style=&quot;font-size: 14px;&quot;&gt;Sw48&lt;/font&gt;" style="text;html=1;align=center;verticalAlign=middle;resizable=0;points=[];autosize=1;strokeColor=none;fillColor=none;" vertex="1" parent="1">
          <mxGeometry x="278" y="664" width="60" height="30" as="geometry" />
        </mxCell>
        <mxCell id="0oNPrVKKpPZaizMl-p-G-65" value="" style="endArrow=none;html=1;rounded=0;entryX=0.25;entryY=1;entryDx=0;entryDy=0;exitX=0.75;exitY=0;exitDx=0;exitDy=0;" edge="1" parent="1" source="0oNPrVKKpPZaizMl-p-G-58" target="0oNPrVKKpPZaizMl-p-G-3">
          <mxGeometry width="50" height="50" relative="1" as="geometry">
            <mxPoint x="337" y="690" as="sourcePoint" />
            <mxPoint x="387" y="640" as="targetPoint" />
          </mxGeometry>
        </mxCell>
        <mxCell id="0oNPrVKKpPZaizMl-p-G-66" value="" style="endArrow=none;html=1;rounded=0;exitX=1;exitY=0.75;exitDx=0;exitDy=0;entryX=0;entryY=0.25;entryDx=0;entryDy=0;" edge="1" parent="1" source="0oNPrVKKpPZaizMl-p-G-57" target="0oNPrVKKpPZaizMl-p-G-3">
          <mxGeometry width="50" height="50" relative="1" as="geometry">
            <mxPoint x="342" y="647" as="sourcePoint" />
            <mxPoint x="392" y="597" as="targetPoint" />
          </mxGeometry>
        </mxCell>
        <mxCell id="0oNPrVKKpPZaizMl-p-G-67" value="&lt;font style=&quot;font-size: 14px;&quot;&gt;Внутренний сервер&lt;/font&gt;" style="text;html=1;align=center;verticalAlign=middle;resizable=0;points=[];autosize=1;strokeColor=none;fillColor=none;" vertex="1" parent="1">
          <mxGeometry x="487" y="720" width="150" height="30" as="geometry" />
        </mxCell>
        <mxCell id="0oNPrVKKpPZaizMl-p-G-68" value="" style="endArrow=none;html=1;rounded=0;exitX=1;exitY=0.5;exitDx=0;exitDy=0;entryX=0.5;entryY=0;entryDx=0;entryDy=0;" edge="1" parent="1" source="0oNPrVKKpPZaizMl-p-G-56" target="0oNPrVKKpPZaizMl-p-G-3">
          <mxGeometry width="50" height="50" relative="1" as="geometry">
            <mxPoint x="437" y="622" as="sourcePoint" />
            <mxPoint x="487" y="572" as="targetPoint" />
          </mxGeometry>
        </mxCell>
        <mxCell id="0oNPrVKKpPZaizMl-p-G-70" value="&lt;font style=&quot;font-size: 14px;&quot;&gt;Группа ПК&lt;/font&gt;" style="ellipse;whiteSpace=wrap;html=1;fillColor=#E6D0DE;" vertex="1" parent="1">
          <mxGeometry x="209" y="320" width="120" height="50" as="geometry" />
        </mxCell>
        <mxCell id="0oNPrVKKpPZaizMl-p-G-71" value="Switch8" style="shape=parallelogram;perimeter=parallelogramPerimeter;whiteSpace=wrap;html=1;fixedSize=1;fillColor=#D4D4D4;" vertex="1" parent="1">
          <mxGeometry x="264" y="386" width="80" height="40" as="geometry" />
        </mxCell>
        <mxCell id="0oNPrVKKpPZaizMl-p-G-72" value="Switch7" style="shape=parallelogram;perimeter=parallelogramPerimeter;whiteSpace=wrap;html=1;fixedSize=1;fillColor=#D4D4D4;" vertex="1" parent="1">
          <mxGeometry x="276" y="470" width="80" height="40" as="geometry" />
        </mxCell>
        <mxCell id="0oNPrVKKpPZaizMl-p-G-73" value="&lt;font style=&quot;font-size: 14px;&quot;&gt;Группа ПК&lt;/font&gt;" style="ellipse;whiteSpace=wrap;html=1;fillColor=#E6D0DE;" vertex="1" parent="1">
          <mxGeometry x="110" y="380" width="120" height="52" as="geometry" />
        </mxCell>
        <mxCell id="0oNPrVKKpPZaizMl-p-G-74" value="" style="endArrow=none;html=1;rounded=0;exitX=1;exitY=0.5;exitDx=0;exitDy=0;entryX=0;entryY=0.25;entryDx=0;entryDy=0;" edge="1" parent="1" source="0oNPrVKKpPZaizMl-p-G-73" target="0oNPrVKKpPZaizMl-p-G-71">
          <mxGeometry width="50" height="50" relative="1" as="geometry">
            <mxPoint x="340" y="497" as="sourcePoint" />
            <mxPoint x="343" y="430" as="targetPoint" />
          </mxGeometry>
        </mxCell>
        <mxCell id="0oNPrVKKpPZaizMl-p-G-75" value="&lt;font style=&quot;font-size: 14px;&quot;&gt;Группа ПК&lt;/font&gt;" style="ellipse;whiteSpace=wrap;html=1;fillColor=#E6D0DE;" vertex="1" parent="1">
          <mxGeometry x="98" y="490" width="120" height="48" as="geometry" />
        </mxCell>
        <mxCell id="0oNPrVKKpPZaizMl-p-G-76" value="" style="endArrow=none;html=1;rounded=0;exitX=1;exitY=0.5;exitDx=0;exitDy=0;entryX=0;entryY=0.5;entryDx=0;entryDy=0;" edge="1" parent="1" source="0oNPrVKKpPZaizMl-p-G-75" target="0oNPrVKKpPZaizMl-p-G-72">
          <mxGeometry width="50" height="50" relative="1" as="geometry">
            <mxPoint x="325" y="581" as="sourcePoint" />
            <mxPoint x="328" y="514" as="targetPoint" />
          </mxGeometry>
        </mxCell>
        <mxCell id="0oNPrVKKpPZaizMl-p-G-77" value="&lt;font style=&quot;font-size: 14px;&quot;&gt;Sw48&lt;/font&gt;" style="text;html=1;align=center;verticalAlign=middle;resizable=0;points=[];autosize=1;strokeColor=none;fillColor=none;" vertex="1" parent="1">
          <mxGeometry x="330" y="500" width="60" height="30" as="geometry" />
        </mxCell>
        <mxCell id="0oNPrVKKpPZaizMl-p-G-78" value="&lt;font style=&quot;font-size: 14px;&quot;&gt;Sw48&lt;/font&gt;" style="text;html=1;align=center;verticalAlign=middle;resizable=0;points=[];autosize=1;strokeColor=none;fillColor=none;" vertex="1" parent="1">
          <mxGeometry x="270" y="430" width="60" height="30" as="geometry" />
        </mxCell>
        <mxCell id="0oNPrVKKpPZaizMl-p-G-79" value="" style="endArrow=none;html=1;rounded=0;exitX=1;exitY=0.5;exitDx=0;exitDy=0;entryX=0.397;entryY=0.991;entryDx=0;entryDy=0;entryPerimeter=0;" edge="1" parent="1" source="0oNPrVKKpPZaizMl-p-G-72" target="0oNPrVKKpPZaizMl-p-G-2">
          <mxGeometry width="50" height="50" relative="1" as="geometry">
            <mxPoint x="400" y="490" as="sourcePoint" />
            <mxPoint x="450" y="440" as="targetPoint" />
          </mxGeometry>
        </mxCell>
        <mxCell id="0oNPrVKKpPZaizMl-p-G-80" value="" style="endArrow=none;html=1;rounded=0;exitX=1;exitY=0.75;exitDx=0;exitDy=0;entryX=0;entryY=0.5;entryDx=0;entryDy=0;" edge="1" parent="1" source="0oNPrVKKpPZaizMl-p-G-71" target="0oNPrVKKpPZaizMl-p-G-2">
          <mxGeometry width="50" height="50" relative="1" as="geometry">
            <mxPoint x="400" y="490" as="sourcePoint" />
            <mxPoint x="450" y="440" as="targetPoint" />
          </mxGeometry>
        </mxCell>
        <mxCell id="0oNPrVKKpPZaizMl-p-G-81" value="" style="endArrow=none;html=1;rounded=0;entryX=0.927;entryY=0.756;entryDx=0;entryDy=0;entryPerimeter=0;exitX=0.382;exitY=0.05;exitDx=0;exitDy=0;exitPerimeter=0;" edge="1" parent="1" source="0oNPrVKKpPZaizMl-p-G-2" target="0oNPrVKKpPZaizMl-p-G-70">
          <mxGeometry width="50" height="50" relative="1" as="geometry">
            <mxPoint x="400" y="490" as="sourcePoint" />
            <mxPoint x="450" y="440" as="targetPoint" />
          </mxGeometry>
        </mxCell>
        <mxCell id="0oNPrVKKpPZaizMl-p-G-83" value="" style="endArrow=none;html=1;rounded=0;entryX=0.5;entryY=1;entryDx=0;entryDy=0;exitX=0.5;exitY=0;exitDx=0;exitDy=0;" edge="1" parent="1" source="0oNPrVKKpPZaizMl-p-G-1" target="0oNPrVKKpPZaizMl-p-G-30">
          <mxGeometry width="50" height="50" relative="1" as="geometry">
            <mxPoint x="400" y="370" as="sourcePoint" />
            <mxPoint x="450" y="320" as="targetPoint" />
          </mxGeometry>
        </mxCell>
        <mxCell id="0oNPrVKKpPZaizMl-p-G-85" value="&lt;font style=&quot;font-size: 14px;&quot;&gt;Группа ПК&lt;/font&gt;" style="ellipse;whiteSpace=wrap;html=1;fillColor=#E6D0DE;" vertex="1" parent="1">
          <mxGeometry x="141.5" y="100" width="120" height="50" as="geometry" />
        </mxCell>
        <mxCell id="0oNPrVKKpPZaizMl-p-G-86" value="Switch10" style="shape=parallelogram;perimeter=parallelogramPerimeter;whiteSpace=wrap;html=1;fixedSize=1;fillColor=#D4D4D4;" vertex="1" parent="1">
          <mxGeometry x="193.5" y="190" width="80" height="40" as="geometry" />
        </mxCell>
        <mxCell id="0oNPrVKKpPZaizMl-p-G-87" value="Switch9" style="shape=parallelogram;perimeter=parallelogramPerimeter;whiteSpace=wrap;html=1;fixedSize=1;fillColor=#D4D4D4;" vertex="1" parent="1">
          <mxGeometry x="187.5" y="255" width="80" height="40" as="geometry" />
        </mxCell>
        <mxCell id="0oNPrVKKpPZaizMl-p-G-88" value="&lt;font style=&quot;font-size: 14px;&quot;&gt;Группа ПК&lt;/font&gt;" style="ellipse;whiteSpace=wrap;html=1;fillColor=#E6D0DE;" vertex="1" parent="1">
          <mxGeometry x="36.5" y="158" width="120" height="52" as="geometry" />
        </mxCell>
        <mxCell id="0oNPrVKKpPZaizMl-p-G-89" value="" style="endArrow=none;html=1;rounded=0;exitX=1;exitY=0.5;exitDx=0;exitDy=0;entryX=0;entryY=0.25;entryDx=0;entryDy=0;" edge="1" parent="1" source="0oNPrVKKpPZaizMl-p-G-88" target="0oNPrVKKpPZaizMl-p-G-86">
          <mxGeometry width="50" height="50" relative="1" as="geometry">
            <mxPoint x="266.5" y="322" as="sourcePoint" />
            <mxPoint x="269.5" y="255" as="targetPoint" />
          </mxGeometry>
        </mxCell>
        <mxCell id="0oNPrVKKpPZaizMl-p-G-90" value="&lt;font style=&quot;font-size: 14px;&quot;&gt;Группа ПК&lt;/font&gt;" style="ellipse;whiteSpace=wrap;html=1;fillColor=#E6D0DE;" vertex="1" parent="1">
          <mxGeometry x="21.5" y="242" width="120" height="48" as="geometry" />
        </mxCell>
        <mxCell id="0oNPrVKKpPZaizMl-p-G-91" value="" style="endArrow=none;html=1;rounded=0;exitX=1;exitY=0.5;exitDx=0;exitDy=0;entryX=0;entryY=0.5;entryDx=0;entryDy=0;" edge="1" parent="1" source="0oNPrVKKpPZaizMl-p-G-90" target="0oNPrVKKpPZaizMl-p-G-87">
          <mxGeometry width="50" height="50" relative="1" as="geometry">
            <mxPoint x="251.5" y="406" as="sourcePoint" />
            <mxPoint x="254.5" y="339" as="targetPoint" />
          </mxGeometry>
        </mxCell>
        <mxCell id="0oNPrVKKpPZaizMl-p-G-92" value="&lt;font style=&quot;font-size: 14px;&quot;&gt;Sw48&lt;/font&gt;" style="text;html=1;align=center;verticalAlign=middle;resizable=0;points=[];autosize=1;strokeColor=none;fillColor=none;" vertex="1" parent="1">
          <mxGeometry x="243.5" y="278" width="60" height="30" as="geometry" />
        </mxCell>
        <mxCell id="0oNPrVKKpPZaizMl-p-G-93" value="&lt;font style=&quot;font-size: 14px;&quot;&gt;Sw48&lt;/font&gt;" style="text;html=1;align=center;verticalAlign=middle;resizable=0;points=[];autosize=1;strokeColor=none;fillColor=none;" vertex="1" parent="1">
          <mxGeometry x="263.5" y="168" width="60" height="30" as="geometry" />
        </mxCell>
        <mxCell id="0oNPrVKKpPZaizMl-p-G-94" value="" style="endArrow=none;html=1;rounded=0;exitX=1;exitY=0.5;exitDx=0;exitDy=0;entryX=0;entryY=0.25;entryDx=0;entryDy=0;" edge="1" parent="1" source="0oNPrVKKpPZaizMl-p-G-86" target="0oNPrVKKpPZaizMl-p-G-1">
          <mxGeometry width="50" height="50" relative="1" as="geometry">
            <mxPoint x="400" y="220" as="sourcePoint" />
            <mxPoint x="450" y="170" as="targetPoint" />
          </mxGeometry>
        </mxCell>
        <mxCell id="0oNPrVKKpPZaizMl-p-G-95" value="" style="endArrow=none;html=1;rounded=0;exitX=1;exitY=0.25;exitDx=0;exitDy=0;entryX=0;entryY=0.5;entryDx=0;entryDy=0;" edge="1" parent="1" source="0oNPrVKKpPZaizMl-p-G-87" target="0oNPrVKKpPZaizMl-p-G-1">
          <mxGeometry width="50" height="50" relative="1" as="geometry">
            <mxPoint x="400" y="220" as="sourcePoint" />
            <mxPoint x="450" y="170" as="targetPoint" />
          </mxGeometry>
        </mxCell>
        <mxCell id="0oNPrVKKpPZaizMl-p-G-96" value="&lt;font style=&quot;font-size: 14px;&quot;&gt;Внешний сервер&lt;/font&gt;" style="text;html=1;align=center;verticalAlign=middle;resizable=0;points=[];autosize=1;strokeColor=none;fillColor=none;" vertex="1" parent="1">
          <mxGeometry x="799.5" y="70" width="130" height="30" as="geometry" />
        </mxCell>
        <mxCell id="0oNPrVKKpPZaizMl-p-G-97" value="" style="endArrow=none;html=1;rounded=0;entryX=1;entryY=0.5;entryDx=0;entryDy=0;exitX=0.25;exitY=0;exitDx=0;exitDy=0;" edge="1" parent="1" source="0oNPrVKKpPZaizMl-p-G-1" target="0oNPrVKKpPZaizMl-p-G-85">
          <mxGeometry width="50" height="50" relative="1" as="geometry">
            <mxPoint x="400" y="240" as="sourcePoint" />
            <mxPoint x="450" y="190" as="targetPoint" />
          </mxGeometry>
        </mxCell>
      </root>
    </mxGraphModel>
  </diagram>
</mxfile>
